# xmcd
#
# Track frame offsets: 
#        150
#        44631
#        78824
#        94511
#        118481
#        145059
#        170479
#
# Disc length: 2546 seconds
#
# Revision: 0
# Processed by: cddbd v1.5.2PL0 Copyright (c) Steve Scherf et al.
# Submitted via: ExactAudioCopy v1.3
#
DISCID=5909f007
DTITLE=Buddy Guy, Junior Wells and Junior Mance - Buddy And The Juniors
DYEAR=1970
DGENRE=Blues
TTITLE0=Talkin' 'Bout Women Obviously
TTITLE1=Riffin'
TTITLE2=Buddy's Blues
TTITLE3=Hoochie Coochie Man
TTITLE4=Five Long Years
TTITLE5=Rock Me Mama
TTITLE6=Ain't No Need
EXTD=
EXTT0=
EXTT1=
EXTT2=
EXTT3=
EXTT4=
EXTT5=
EXTT6=
PLAYORDER=
